<svg xmlns="http://www.w3.org/2000/svg" version="1.1" xmlns:xlink="http://www.w3.org/1999/xlink" xmlns:svgjs="http://svgjs.dev/svgjs" viewBox="0 0 800 800"><defs><linearGradient x1="50%" y1="0%" x2="50%" y2="100%" id="ffflurry-grad" gradientTransform="rotate(270)"><stop stop-color="#fff" stop-opacity="1" offset="0%"></stop><stop stop-color="#3F8CFF" stop-opacity="1" offset="45%"></stop><stop stop-color="#a#F4F9FD" stop-opacity="1" offset="100%"></stop></linearGradient></defs><rect width="100%" height="100%" fill="#ffffff"></rect><g fill="url(#ffflurry-grad)"><rect width="458" height="1" x="-82" y="722.5" rx="0.5" transform="rotate(160, 147, 723)" opacity="0.81"></rect><rect width="193" height="1" x="37.5" y="337.5" rx="0.5" transform="rotate(160, 134, 338)" opacity="0.12"></rect><rect width="926" height="1" x="6" y="519.5" rx="0.5" transform="rotate(160, 469, 520)" opacity="0.20"></rect><rect width="528" height="1" x="107" y="321.5" rx="0.5" transform="rotate(160, 371, 322)" opacity="0.63"></rect><rect width="376" height="1" x="144" y="629.5" rx="0.5" transform="rotate(160, 332, 630)" opacity="0.63"></rect><rect width="857" height="1" x="-316.5" y="528.5" rx="0.5" transform="rotate(160, 112, 529)" opacity="0.18"></rect><rect width="1120" height="1" x="72" y="700.5" rx="0.5" transform="rotate(160, 632, 701)" opacity="0.55"></rect><rect width="248" height="1" x="17" y="79.5" rx="0.5" transform="rotate(160, 141, 80)" opacity="0.17"></rect><rect width="1345" height="1" x="3.5" y="442.5" rx="0.5" transform="rotate(160, 676, 443)" opacity="0.17"></rect><rect width="426" height="1" x="-149" y="198.5" rx="0.5" transform="rotate(160, 64, 199)" opacity="0.42"></rect><rect width="1124" height="1" x="92" y="155.5" rx="0.5" transform="rotate(160, 654, 156)" opacity="0.86"></rect><rect width="961" height="1" x="-104.5" y="105.5" rx="0.5" transform="rotate(160, 376, 106)" opacity="0.19"></rect></g></svg>