<svg xmlns="http://www.w3.org/2000/svg" version="1.1" xmlns:xlink="http://www.w3.org/1999/xlink" xmlns:svgjs="http://svgjs.dev/svgjs" width="1440" height="250" preserveAspectRatio="none" viewBox="0 0 1440 250"><g mask="url(&quot;#SvgjsMask1003&quot;)" fill="none"><rect width="1440" height="250" x="0" y="0" fill="rgba(244, 249, 253, 1)"></rect><path d="M26 250L276 0L459 0L209 250z" fill="url(&quot;#SvgjsLinearGradient1004&quot;)"></path><path d="M251.60000000000002 250L501.6 0L792.6 0L542.6 250z" fill="url(&quot;#SvgjsLinearGradient1004&quot;)"></path><path d="M481.20000000000005 250L731.2 0L959.2 0L709.2 250z" fill="url(&quot;#SvgjsLinearGradient1004&quot;)"></path><path d="M728.8000000000001 250L978.8000000000001 0L1172.3000000000002 0L922.3000000000001 250z" fill="url(&quot;#SvgjsLinearGradient1004&quot;)"></path><path d="M1429 250L1179 0L882 0L1132 250z" fill="url(&quot;#SvgjsLinearGradient1005&quot;)"></path><path d="M1154.4 250L904.4000000000001 0L826.4000000000001 0L1076.4 250z" fill="url(&quot;#SvgjsLinearGradient1005&quot;)"></path><path d="M960.8 250L710.8 0L497.79999999999995 0L747.8 250z" fill="url(&quot;#SvgjsLinearGradient1005&quot;)"></path><path d="M711.1999999999999 250L461.19999999999993 0L174.69999999999993 0L424.69999999999993 250z" fill="url(&quot;#SvgjsLinearGradient1005&quot;)"></path><path d="M1220.773529921515 250L1440 30.773529921515035L1440 250z" fill="url(&quot;#SvgjsLinearGradient1004&quot;)"></path><path d="M0 250L219.22647007848497 250L 0 30.773529921515035z" fill="url(&quot;#SvgjsLinearGradient1005&quot;)"></path></g><defs><mask id="SvgjsMask1003"><rect width="1440" height="250" fill="#ffffff"></rect></mask><linearGradient x1="0%" y1="100%" x2="100%" y2="0%" id="SvgjsLinearGradient1004"><stop stop-color="rgba(15, 70, 185, 0.2)" offset="0"></stop><stop stop-opacity="0" stop-color="rgba(15, 70, 185, 0.2)" offset="0.66"></stop></linearGradient><linearGradient x1="100%" y1="100%" x2="0%" y2="0%" id="SvgjsLinearGradient1005"><stop stop-color="rgba(15, 70, 185, 0.2)" offset="0"></stop><stop stop-opacity="0" stop-color="rgba(15, 70, 185, 0.2)" offset="0.66"></stop></linearGradient></defs></svg>